M48
; DRILL file {KiCad (6.0.2)} date Thu May  5 15:15:50 2022
; FORMAT={-:-/ absolute / metric / decimal}
; #@! TF.CreationDate,2022-05-05T15:15:50-07:00
; #@! TF.GenerationSoftware,Kicad,Pcbnew,(6.0.2)
; #@! TF.FileFunction,Plated,1,2,PTH
FMAT,2
METRIC
; #@! TA.AperFunction,Plated,PTH,ViaDrill
T1C0.350
; #@! TA.AperFunction,Plated,PTH,ViaDrill
T2C0.400
; #@! TA.AperFunction,Plated,PTH,ViaDrill
T3C1.000
; #@! TA.AperFunction,Plated,PTH,ComponentDrill
T4C1.000
; #@! TA.AperFunction,Plated,PTH,ComponentDrill
T5C1.016
; #@! TA.AperFunction,Plated,PTH,ComponentDrill
T6C1.100
; #@! TA.AperFunction,Plated,PTH,ComponentDrill
T7C3.200
%
G90
G05
T1
X137.194Y-132.724
X137.194Y-134.724
X139.194Y-132.724
X139.194Y-134.724
X141.194Y-132.724
X141.194Y-134.724
X143.194Y-132.724
X143.194Y-134.724
X145.194Y-132.724
X145.194Y-134.724
X147.194Y-132.724
X147.194Y-134.724
X149.194Y-132.724
X149.194Y-134.724
T2
X100.194Y-62.974
X100.194Y-65.474
X100.194Y-67.974
X100.194Y-70.474
X100.194Y-72.724
X101.194Y-90.474
X101.194Y-91.974
X101.194Y-93.474
X101.194Y-94.974
X101.194Y-96.474
X101.194Y-97.974
X101.194Y-99.474
X101.194Y-100.974
X101.194Y-111.974
X101.194Y-113.474
X101.194Y-114.974
X101.194Y-116.474
X101.194Y-117.974
X101.194Y-119.474
X101.194Y-120.974
X101.194Y-122.474
X102.694Y-70.474
X102.694Y-72.724
X102.694Y-90.474
X102.694Y-91.974
X102.694Y-93.474
X102.694Y-94.974
X102.694Y-96.474
X102.694Y-97.974
X102.694Y-99.474
X102.694Y-100.974
X102.694Y-111.974
X102.694Y-113.474
X102.694Y-114.974
X102.694Y-116.474
X102.694Y-117.974
X102.694Y-119.474
X102.694Y-120.974
X102.694Y-122.474
X104.194Y-90.474
X104.194Y-91.974
X104.194Y-93.474
X104.194Y-94.974
X104.194Y-96.474
X104.194Y-97.974
X104.194Y-99.474
X104.194Y-100.974
X104.194Y-111.974
X104.194Y-113.474
X104.194Y-114.974
X104.194Y-116.474
X104.194Y-117.974
X104.194Y-119.474
X104.194Y-120.974
X104.194Y-122.474
X105.194Y-72.724
X105.694Y-97.974
X105.694Y-99.474
X105.694Y-100.974
X105.694Y-119.474
X105.694Y-120.974
X105.694Y-122.474
X107.194Y-97.974
X107.194Y-99.474
X107.194Y-100.974
X107.194Y-119.474
X107.194Y-120.974
X107.194Y-122.474
X114.194Y-68.724
X115.194Y-67.224
X116.194Y-62.474
X116.194Y-64.474
X116.194Y-85.224
X116.194Y-106.724
X116.194Y-128.224
X117.194Y-70.474
X118.694Y-62.474
X120.944Y-70.824
X121.194Y-62.474
X121.194Y-64.724
X123.694Y-62.474
X123.694Y-64.724
X125.194Y-66.974
X125.194Y-68.724
X133.694Y-65.724
X136.944Y-70.474
X137.194Y-78.724
X137.194Y-80.724
X137.194Y-89.724
X137.194Y-91.724
X137.194Y-100.224
X137.194Y-102.224
X137.194Y-111.224
X137.194Y-113.224
X137.194Y-121.724
X137.194Y-123.724
X139.194Y-78.724
X139.194Y-80.724
X139.194Y-89.724
X139.194Y-91.724
X139.194Y-100.224
X139.194Y-102.224
X139.194Y-111.224
X139.194Y-113.224
X139.194Y-121.724
X139.194Y-123.724
X141.194Y-78.724
X141.194Y-80.724
X141.194Y-89.724
X141.194Y-91.724
X141.194Y-100.224
X141.194Y-102.224
X141.194Y-111.224
X141.194Y-113.224
X141.194Y-121.724
X141.194Y-123.724
X143.194Y-78.724
X143.194Y-80.724
X143.194Y-89.724
X143.194Y-91.724
X143.194Y-100.224
X143.194Y-102.224
X143.194Y-111.224
X143.194Y-113.224
X143.194Y-121.724
X143.194Y-123.724
X145.194Y-78.724
X145.194Y-80.724
X145.194Y-89.724
X145.194Y-91.724
X145.194Y-100.224
X145.194Y-102.224
X145.194Y-111.224
X145.194Y-113.224
X145.194Y-121.724
X145.194Y-123.724
X147.194Y-78.724
X147.194Y-80.724
X147.194Y-89.724
X147.194Y-91.724
X147.194Y-100.224
X147.194Y-102.224
X147.194Y-111.224
X147.194Y-113.224
X147.194Y-121.724
X147.194Y-123.724
X148.194Y-74.224
X149.194Y-78.724
X149.194Y-80.724
X149.194Y-89.724
X149.194Y-91.724
X149.194Y-100.224
X149.194Y-102.224
X149.194Y-111.224
X149.194Y-113.224
X149.194Y-121.724
X149.194Y-123.724
X150.069Y-71.474
X150.194Y-69.724
X154.444Y-74.224
X161.944Y-72.974
X162.344Y-68.474
X164.694Y-74.224
X166.394Y-69.324
X169.319Y-74.299
X169.93Y-64.3
X170.194Y-85.224
X170.194Y-106.724
X170.194Y-128.224
X170.694Y-72.174
X172.069Y-73.974
X172.569Y-62.474
X175.05Y-64.307
X175.069Y-62.474
X177.319Y-62.474
X181.694Y-71.724
X184.38Y-65.46
X185.194Y-71.724
T3
X105.819Y-64.724
X106.069Y-64.724
X110.194Y-64.724
X110.444Y-64.724
T4
X106.394Y-64.724
X109.894Y-64.724
X149.894Y-64.324
X153.394Y-64.324
X160.394Y-64.324
X163.894Y-64.324
T5
X139.114Y-72.304
X141.654Y-72.304
X144.194Y-63.414
X144.194Y-65.954
X144.194Y-68.494
X144.194Y-72.304
T6
X105.654Y-64.724
X110.734Y-64.724
T7
X103.426Y-143.294
X105.966Y-57.569
X179.626Y-57.569
X183.426Y-143.294
T0
M30
