%TF.GenerationSoftware,KiCad,Pcbnew,(6.0.2)*%
%TF.CreationDate,2022-05-05T15:15:48-07:00*%
%TF.ProjectId,Bat_Board_v3.104,4261745f-426f-4617-9264-5f76332e3130,rev?*%
%TF.SameCoordinates,Original*%
%TF.FileFunction,Soldermask,Top*%
%TF.FilePolarity,Negative*%
%FSLAX46Y46*%
G04 Gerber Fmt 4.6, Leading zero omitted, Abs format (unit mm)*
G04 Created by KiCad (PCBNEW (6.0.2)) date 2022-05-05 15:15:48*
%MOMM*%
%LPD*%
G01*
G04 APERTURE LIST*
G04 Aperture macros list*
%AMRoundRect*
0 Rectangle with rounded corners*
0 $1 Rounding radius*
0 $2 $3 $4 $5 $6 $7 $8 $9 X,Y pos of 4 corners*
0 Add a 4 corners polygon primitive as box body*
4,1,4,$2,$3,$4,$5,$6,$7,$8,$9,$2,$3,0*
0 Add four circle primitives for the rounded corners*
1,1,$1+$1,$2,$3*
1,1,$1+$1,$4,$5*
1,1,$1+$1,$6,$7*
1,1,$1+$1,$8,$9*
0 Add four rect primitives between the rounded corners*
20,1,$1+$1,$2,$3,$4,$5,0*
20,1,$1+$1,$4,$5,$6,$7,0*
20,1,$1+$1,$6,$7,$8,$9,0*
20,1,$1+$1,$8,$9,$2,$3,0*%
G04 Aperture macros list end*
%ADD10RoundRect,0.025400X0.444500X-0.381000X0.444500X0.381000X-0.444500X0.381000X-0.444500X-0.381000X0*%
%ADD11C,5.600000*%
%ADD12RoundRect,0.025400X0.635000X0.825500X-0.635000X0.825500X-0.635000X-0.825500X0.635000X-0.825500X0*%
%ADD13RoundRect,0.025400X-0.444500X0.381000X-0.444500X-0.381000X0.444500X-0.381000X0.444500X0.381000X0*%
%ADD14RoundRect,0.025400X-0.600000X-0.200000X0.600000X-0.200000X0.600000X0.200000X-0.600000X0.200000X0*%
%ADD15RoundRect,0.025400X0.600000X0.200000X-0.600000X0.200000X-0.600000X-0.200000X0.600000X-0.200000X0*%
%ADD16RoundRect,0.025400X-1.225000X1.150000X-1.225000X-1.150000X1.225000X-1.150000X1.225000X1.150000X0*%
%ADD17C,2.235200*%
%ADD18RoundRect,0.025400X-0.381000X-0.444500X0.381000X-0.444500X0.381000X0.444500X-0.381000X0.444500X0*%
%ADD19RoundRect,0.025400X0.381000X0.444500X-0.381000X0.444500X-0.381000X-0.444500X0.381000X-0.444500X0*%
%ADD20RoundRect,0.025400X0.698500X-0.508000X0.698500X0.508000X-0.698500X0.508000X-0.698500X-0.508000X0*%
%ADD21C,3.500000*%
%ADD22C,2.400000*%
%ADD23RoundRect,0.025400X-4.000000X-3.250000X4.000000X-3.250000X4.000000X3.250000X-4.000000X3.250000X0*%
%ADD24O,2.235200X4.419600*%
%ADD25RoundRect,0.025400X-0.500000X-2.300000X0.500000X-2.300000X0.500000X2.300000X-0.500000X2.300000X0*%
%ADD26RoundRect,0.025400X0.850000X-1.700000X0.850000X1.700000X-0.850000X1.700000X-0.850000X-1.700000X0*%
%ADD27C,1.727200*%
%ADD28RoundRect,0.025400X0.508000X0.698500X-0.508000X0.698500X-0.508000X-0.698500X0.508000X-0.698500X0*%
%ADD29RoundRect,0.025400X-1.700000X-0.800000X1.700000X-0.800000X1.700000X0.800000X-1.700000X0.800000X0*%
%ADD30RoundRect,0.025400X-2.300000X0.500000X-2.300000X-0.500000X2.300000X-0.500000X2.300000X0.500000X0*%
%ADD31RoundRect,0.025400X-2.500000X-1.000000X2.500000X-1.000000X2.500000X1.000000X-2.500000X1.000000X0*%
%ADD32RoundRect,0.025400X-0.600000X0.275000X-0.600000X-0.275000X0.600000X-0.275000X0.600000X0.275000X0*%
G04 APERTURE END LIST*
D10*
%TO.C,C11*%
X116694000Y-68236400D03*
X116694000Y-66712400D03*
%TD*%
D11*
%TO.C,*%
X183426100Y-143294100D03*
%TD*%
D12*
%TO.C,C1*%
X127989400Y-62474400D03*
X125398600Y-62474400D03*
%TD*%
D13*
%TO.C,C7*%
X160444000Y-69712400D03*
X160444000Y-71236400D03*
%TD*%
D14*
%TO.C,U3*%
X122194000Y-66774400D03*
X122194000Y-67424400D03*
X122194000Y-68074400D03*
X122194000Y-68724400D03*
X122194000Y-69374400D03*
X122194000Y-70024400D03*
X122194000Y-70674400D03*
D15*
X128194000Y-70674400D03*
X128194000Y-70024400D03*
X128194000Y-69374400D03*
X128194000Y-68724400D03*
X128194000Y-68074400D03*
X128194000Y-67424400D03*
X128194000Y-66774400D03*
D16*
X125194000Y-68724400D03*
%TD*%
D10*
%TO.C,R5*%
X162444000Y-71236400D03*
X162444000Y-69712400D03*
%TD*%
D17*
%TO.C,J2*%
X149894000Y-64324400D03*
X153394000Y-64324400D03*
%TD*%
D18*
%TO.C,R6*%
X158557000Y-72974400D03*
X160081000Y-72974400D03*
%TD*%
D19*
%TO.C,C10*%
X155206000Y-72974400D03*
X153682000Y-72974400D03*
%TD*%
D13*
%TO.C,C8*%
X158444000Y-69712400D03*
X158444000Y-71236400D03*
%TD*%
D20*
%TO.C,C3*%
X115694000Y-71990400D03*
X115694000Y-69958400D03*
%TD*%
D11*
%TO.C,*%
X103426100Y-143294100D03*
%TD*%
%TO.C,*%
X105966100Y-57569100D03*
%TD*%
D17*
%TO.C,J1*%
X160394000Y-64324400D03*
X163894000Y-64324400D03*
%TD*%
D10*
%TO.C,R2*%
X118194000Y-66486400D03*
X118194000Y-64962400D03*
%TD*%
D21*
%TO.C,BAT6*%
X170816500Y-120223400D03*
D22*
X179033400Y-136225400D03*
D21*
X115571500Y-136225400D03*
D23*
X103494000Y-128224400D03*
X182894000Y-128224400D03*
%TD*%
D11*
%TO.C,*%
X179626100Y-57569100D03*
%TD*%
D24*
%TO.C,J5*%
X105654000Y-64724400D03*
X110734000Y-64724400D03*
%TD*%
D19*
%TO.C,C5*%
X132456000Y-67224400D03*
X130932000Y-67224400D03*
%TD*%
D13*
%TO.C,C9*%
X164444000Y-69712400D03*
X164444000Y-71236400D03*
%TD*%
D12*
%TO.C,C2*%
X127989400Y-64724400D03*
X125398600Y-64724400D03*
%TD*%
D25*
%TO.C,CONN1*%
X105194000Y-68174400D03*
X107194000Y-68174400D03*
X109194000Y-68174400D03*
X111194000Y-68174400D03*
D26*
X102494000Y-62974400D03*
X113894000Y-62974400D03*
%TD*%
D27*
%TO.C,JP2*%
X139114000Y-72304400D03*
X141654000Y-72304400D03*
X144194000Y-72304400D03*
%TD*%
D13*
%TO.C,R3*%
X118194000Y-67962400D03*
X118194000Y-69486400D03*
%TD*%
D28*
%TO.C,C4*%
X109210000Y-72224400D03*
X107178000Y-72224400D03*
%TD*%
D29*
%TO.C,J3*%
X185690008Y-69730015D03*
X185690008Y-62930004D03*
D30*
X180490007Y-65330005D03*
X180490007Y-67330005D03*
%TD*%
D13*
%TO.C,C6*%
X119694000Y-67962400D03*
X119694000Y-69486400D03*
%TD*%
D27*
%TO.C,JP1*%
X144194000Y-68494400D03*
X144194000Y-65954400D03*
X144194000Y-63414400D03*
%TD*%
D17*
%TO.C,J6*%
X106394000Y-64724400D03*
X109894000Y-64724400D03*
%TD*%
D21*
%TO.C,BAT4*%
X115571500Y-93225400D03*
D22*
X179033400Y-93225400D03*
D21*
X170816500Y-77223400D03*
D23*
X103494000Y-85224400D03*
X182894000Y-85224400D03*
%TD*%
D31*
%TO.C,L1*%
X132694000Y-69124400D03*
X132694000Y-72324400D03*
%TD*%
D19*
%TO.C,R4*%
X132456000Y-65724400D03*
X130932000Y-65724400D03*
%TD*%
D13*
%TO.C,R1*%
X119694000Y-64962400D03*
X119694000Y-66486400D03*
%TD*%
D22*
%TO.C,BAT5*%
X179033400Y-114725400D03*
D21*
X170816500Y-98723400D03*
X115571500Y-114725400D03*
D23*
X103494000Y-106724400D03*
X182894000Y-106724400D03*
%TD*%
D32*
%TO.C,U1*%
X153894000Y-69524400D03*
X153894000Y-70474400D03*
X153894000Y-71424400D03*
X156494000Y-71424400D03*
X156494000Y-70474400D03*
X156494000Y-69524400D03*
%TD*%
D13*
%TO.C,R7*%
X151944000Y-71712400D03*
X151944000Y-73236400D03*
%TD*%
D21*
%TO.C,BAT3*%
X170816500Y-136225400D03*
X115571500Y-120223400D03*
D22*
X107354600Y-136225400D03*
%TD*%
D21*
%TO.C,BAT2*%
X170816500Y-114725400D03*
D22*
X107354600Y-114725400D03*
D21*
X115571500Y-98723400D03*
%TD*%
D22*
%TO.C,BAT1*%
X107354600Y-93225400D03*
D21*
X170816500Y-93225400D03*
X115571500Y-77223400D03*
%TD*%
M02*
