%TF.GenerationSoftware,KiCad,Pcbnew,(6.0.2)*%
%TF.CreationDate,2022-05-05T15:15:48-07:00*%
%TF.ProjectId,Bat_Board_v3.104,4261745f-426f-4617-9264-5f76332e3130,rev?*%
%TF.SameCoordinates,Original*%
%TF.FileFunction,Soldermask,Bot*%
%TF.FilePolarity,Negative*%
%FSLAX46Y46*%
G04 Gerber Fmt 4.6, Leading zero omitted, Abs format (unit mm)*
G04 Created by KiCad (PCBNEW (6.0.2)) date 2022-05-05 15:15:48*
%MOMM*%
%LPD*%
G01*
G04 APERTURE LIST*
G04 Aperture macros list*
%AMRoundRect*
0 Rectangle with rounded corners*
0 $1 Rounding radius*
0 $2 $3 $4 $5 $6 $7 $8 $9 X,Y pos of 4 corners*
0 Add a 4 corners polygon primitive as box body*
4,1,4,$2,$3,$4,$5,$6,$7,$8,$9,$2,$3,0*
0 Add four circle primitives for the rounded corners*
1,1,$1+$1,$2,$3*
1,1,$1+$1,$4,$5*
1,1,$1+$1,$6,$7*
1,1,$1+$1,$8,$9*
0 Add four rect primitives between the rounded corners*
20,1,$1+$1,$2,$3,$4,$5,0*
20,1,$1+$1,$4,$5,$6,$7,0*
20,1,$1+$1,$6,$7,$8,$9,0*
20,1,$1+$1,$8,$9,$2,$3,0*%
G04 Aperture macros list end*
%ADD10C,5.600000*%
%ADD11C,2.235200*%
%ADD12C,3.500000*%
%ADD13C,2.400000*%
%ADD14O,2.235200X4.419600*%
%ADD15C,1.727200*%
%ADD16RoundRect,0.025400X4.000000X3.250000X-4.000000X3.250000X-4.000000X-3.250000X4.000000X-3.250000X0*%
%ADD17RoundRect,0.025400X1.016000X-0.330200X1.016000X0.330200X-1.016000X0.330200X-1.016000X-0.330200X0*%
%ADD18RoundRect,0.025400X-1.016000X0.330200X-1.016000X-0.330200X1.016000X-0.330200X1.016000X0.330200X0*%
%ADD19RoundRect,0.025400X0.889000X1.587500X-0.889000X1.587500X-0.889000X-1.587500X0.889000X-1.587500X0*%
%ADD20RoundRect,0.025400X2.300000X-0.500000X2.300000X0.500000X-2.300000X0.500000X-2.300000X-0.500000X0*%
%ADD21RoundRect,0.025400X-1.700000X-0.800000X1.700000X-0.800000X1.700000X0.800000X-1.700000X0.800000X0*%
G04 APERTURE END LIST*
D10*
%TO.C,*%
X183426100Y-143294100D03*
%TD*%
D11*
%TO.C,J2*%
X149894000Y-64324400D03*
X153394000Y-64324400D03*
%TD*%
D10*
%TO.C,*%
X103426100Y-143294100D03*
%TD*%
%TO.C,*%
X105966100Y-57569100D03*
%TD*%
D11*
%TO.C,J1*%
X160394000Y-64324400D03*
X163894000Y-64324400D03*
%TD*%
D12*
%TO.C,BAT6*%
X170816500Y-120223400D03*
D13*
X179033400Y-136225400D03*
D12*
X115571500Y-136225400D03*
%TD*%
D10*
%TO.C,*%
X179626100Y-57569100D03*
%TD*%
D14*
%TO.C,J5*%
X105654000Y-64724400D03*
X110734000Y-64724400D03*
%TD*%
D15*
%TO.C,JP2*%
X139114000Y-72304400D03*
X141654000Y-72304400D03*
X144194000Y-72304400D03*
%TD*%
%TO.C,JP1*%
X144194000Y-68494400D03*
X144194000Y-65954400D03*
X144194000Y-63414400D03*
%TD*%
D11*
%TO.C,J6*%
X106394000Y-64724400D03*
X109894000Y-64724400D03*
%TD*%
D12*
%TO.C,BAT4*%
X115571500Y-93225400D03*
D13*
X179033400Y-93225400D03*
D12*
X170816500Y-77223400D03*
%TD*%
D13*
%TO.C,BAT5*%
X179033400Y-114725400D03*
D12*
X170816500Y-98723400D03*
X115571500Y-114725400D03*
%TD*%
%TO.C,BAT3*%
X170816500Y-136225400D03*
X115571500Y-120223400D03*
D13*
X107354600Y-136225400D03*
D16*
X182894000Y-128224400D03*
X103494000Y-128224400D03*
%TD*%
D17*
%TO.C,Q4*%
X147620600Y-72379400D03*
X147620600Y-71109400D03*
X147620600Y-69839400D03*
X147620600Y-68569400D03*
X153767400Y-68569400D03*
X153767400Y-69839400D03*
X153767400Y-71109400D03*
X153767400Y-72379400D03*
%TD*%
D12*
%TO.C,BAT2*%
X170816500Y-114725400D03*
D13*
X107354600Y-114725400D03*
D12*
X115571500Y-98723400D03*
D16*
X182894000Y-106724400D03*
X103494000Y-106724400D03*
%TD*%
D18*
%TO.C,Q3*%
X164767400Y-68569400D03*
X164767400Y-69839400D03*
X164767400Y-71109400D03*
X164767400Y-72379400D03*
X158620600Y-72379400D03*
X158620600Y-71109400D03*
X158620600Y-69839400D03*
X158620600Y-68569400D03*
%TD*%
D19*
%TO.C,R8*%
X173488000Y-71224400D03*
X167900000Y-71224400D03*
%TD*%
D13*
%TO.C,BAT1*%
X107354600Y-93225400D03*
D12*
X170816500Y-93225400D03*
X115571500Y-77223400D03*
D16*
X182894000Y-85224400D03*
X103494000Y-85224400D03*
%TD*%
D20*
%TO.C,J4*%
X180480007Y-65310005D03*
X180480007Y-67310005D03*
D21*
X185680000Y-69710000D03*
X185680000Y-62910014D03*
%TD*%
M02*
